<svg width="94" height="86" viewBox="0 0 94 86" fill="none" xmlns="http://www.w3.org/2000/svg">
<path d="M47.4518 57.6092C47.4102 57.124 47.2506 56.4964 46.7802 55.9642L41.2006 49.5047C40.1998 48.3463 38.4559 48.2239 37.3058 49.2324C36.1555 50.2406 36.0346 51.9972 37.0354 53.156L38.3332 54.6586C31.8175 54.0254 24.4365 52.6335 19.8313 51.3188C15.7149 50.1437 6.0826 46.9476 5.54407 42.6598C5.16641 39.6539 9.68016 35.9581 11.9206 34.6421C13.2406 33.8733 13.692 32.1722 12.929 30.8422C12.1659 29.5127 10.4773 29.0579 9.1571 29.8264C9.05882 29.8837 6.72658 31.2518 4.48672 33.4224C1.18639 36.6204 -0.342855 40.0507 0.064441 43.3422C0.764924 49.0026 6.73817 53.3624 18.326 56.6705C23.3593 58.1074 31.1914 59.5812 38.1488 60.2296L36.6153 61.6999C35.5108 62.7588 35.4676 64.5191 36.5186 65.6317C37.0612 66.2061 37.7893 66.4956 38.5189 66.4956C39.2024 66.4956 39.8874 66.2414 40.4216 65.7289L46.6007 59.8045C47.0857 59.3113 47.5287 58.5522 47.4518 57.6092Z" fill="white" fill-opacity="0.5"/>
<path d="M86.4745 29.8662C85.1737 29.0655 83.4744 29.4787 82.6795 30.7894C81.8846 32.1001 82.2948 33.812 83.5959 34.6126C83.6102 34.6215 85.0614 35.5318 86.4081 36.9741C87.4815 38.1235 88.705 39.8517 88.4403 41.5564C88.153 43.4058 85.537 48.1831 67.4936 52.5926C66.0118 52.9547 65.1021 54.4582 65.4615 55.9509C65.7679 57.2234 66.8974 58.0772 68.1422 58.0772C68.3575 58.0772 68.5767 58.0514 68.7952 57.998C84.6585 54.1213 92.8689 49.0245 93.8953 42.4163C95.0145 35.2131 86.8239 30.0813 86.4745 29.8662Z" fill="white" fill-opacity="0.5"/>
<path d="M24.4235 22.2034H20.9343C19.4096 22.2034 18.1736 23.4486 18.1736 24.9846C18.1736 26.5205 19.4096 27.7657 20.9343 27.7657H24.4235C25.8228 27.7657 26.9611 28.9125 26.9611 30.322C26.9611 31.7315 25.8228 32.8782 24.4235 32.8782H21.0637C19.539 32.8782 18.303 34.1235 18.303 35.6594C18.303 37.1953 19.539 38.4406 21.0637 38.4406H24.4235C28.8673 38.4406 32.4825 34.7985 32.4825 30.322C32.4825 28.2797 31.7285 26.4128 30.4884 24.9846C31.7285 23.5564 32.4825 21.6893 32.4825 19.647C32.4825 15.1703 28.8673 11.5284 24.4235 11.5284H20.9343C19.4096 11.5284 18.1736 12.7736 18.1736 14.3096C18.1736 15.8455 19.4096 17.0907 20.9343 17.0907H24.4235C25.8228 17.0907 26.9611 18.2375 26.9611 19.647C26.9611 21.0565 25.8226 22.2034 24.4235 22.2034Z" fill="white" fill-opacity="0.5"/>
<path d="M75.5936 30.7777V18.6708C75.5936 14.3735 72.1234 10.8776 67.8577 10.8776C63.592 10.8776 60.1218 14.3735 60.1218 18.6708V30.7777C60.1218 35.075 63.592 38.5709 67.8577 38.5709C72.1234 38.5709 75.5936 35.0748 75.5936 30.7777ZM65.6432 30.7777V18.6708C65.6432 17.4406 66.6365 16.4399 67.8577 16.4399C69.0788 16.4399 70.0722 17.4406 70.0722 18.6708V30.7777C70.0722 32.0079 69.0788 33.0086 67.8577 33.0086C66.6365 33.0086 65.6432 32.0077 65.6432 30.7777Z" fill="white" fill-opacity="0.5"/>
<path d="M46.2256 21.68H46.2214C45.5971 21.68 44.9848 21.7579 44.3953 21.909V19.5248C44.3953 18.2544 45.4211 17.2209 46.6822 17.2209H50.3122C51.8368 17.2209 53.0729 15.9757 53.0729 14.4397C53.0729 12.9038 51.8368 11.6586 50.3122 11.6586H46.6822C42.3766 11.6586 38.8738 15.1873 38.8738 19.5248V28.9915C38.8735 29.0219 38.8733 29.0523 38.8733 29.0827V30.7777C38.8733 30.8013 38.8735 30.8248 38.8742 30.8484C38.9121 34.8977 42.1937 38.1804 46.2221 38.1804C50.2739 38.1804 53.5704 34.8597 53.5704 30.7777V29.0827C53.5702 25.0031 50.2757 21.6824 46.2256 21.68ZM48.0488 30.7777C48.0488 31.7925 47.2292 32.6181 46.2219 32.6181C45.2146 32.6181 44.3951 31.7925 44.3951 30.7777V29.0373C44.4065 28.5624 44.5953 28.118 44.9299 27.7811C45.275 27.4337 45.7335 27.2425 46.2219 27.2425H46.223C47.2298 27.2431 48.0488 28.0687 48.0488 29.0829V30.7777Z" fill="white" fill-opacity="0.5"/>
<path d="M82.1069 7.98523C84.2044 7.98523 85.9047 6.2723 85.9047 4.15929C85.9047 2.04628 84.2044 0.333344 82.1069 0.333344C80.0094 0.333344 78.3091 2.04628 78.3091 4.15929C78.3091 6.2723 80.0094 7.98523 82.1069 7.98523Z" fill="white" fill-opacity="0.5"/>
<path d="M4.36429 71.31C5.358 71.31 6.22638 71.5069 6.96943 71.9008C7.71248 72.2947 8.28543 72.8498 8.68829 73.566C9.1001 74.2732 9.306 75.0924 9.306 76.0234C9.306 76.9455 9.1001 77.7646 8.68829 78.4808C8.28543 79.197 7.708 79.7521 6.956 80.146C6.21295 80.5399 5.34905 80.7368 4.36429 80.7368H0.832571V71.31H4.36429ZM4.21657 78.7494C5.08495 78.7494 5.76086 78.5122 6.24429 78.0377C6.72772 77.5632 6.96943 76.8918 6.96943 76.0234C6.96943 75.155 6.72772 74.4791 6.24429 73.9957C5.76086 73.5123 5.08495 73.2705 4.21657 73.2705H3.12886V78.7494H4.21657ZM15.3967 80.7368L13.4361 77.1783H12.8856V80.7368H10.5893V71.31H14.4433C15.1863 71.31 15.8175 71.4398 16.3367 71.6994C16.8649 71.959 17.2588 72.3171 17.5184 72.7737C17.778 73.2213 17.9078 73.7226 17.9078 74.2777C17.9078 74.9044 17.7288 75.4639 17.3707 75.9563C17.0216 76.4486 16.5023 76.7978 15.813 77.0037L17.9884 80.7368H15.3967ZM12.8856 75.5534H14.309C14.7297 75.5534 15.0431 75.4505 15.249 75.2445C15.4638 75.0386 15.5713 74.7477 15.5713 74.3717C15.5713 74.0136 15.4638 73.7316 15.249 73.5257C15.0431 73.3198 14.7297 73.2168 14.309 73.2168H12.8856V75.5534ZM25.2176 79.0717H21.6993L21.1353 80.7368H18.7316L22.1425 71.31H24.8013L28.2122 80.7368H25.7816L25.2176 79.0717ZM24.6267 77.2991L23.4585 73.848L22.3036 77.2991H24.6267ZM35.508 74.2911C35.3379 73.9778 35.0917 73.7405 34.7694 73.5794C34.4561 73.4093 34.0845 73.3243 33.6548 73.3243C32.9118 73.3243 32.3165 73.5705 31.8688 74.0628C31.4212 74.5463 31.1974 75.1953 31.1974 76.01C31.1974 76.8784 31.4302 77.5587 31.8957 78.0511C32.3702 78.5345 33.0192 78.7763 33.8428 78.7763C34.4068 78.7763 34.8813 78.633 35.2663 78.3465C35.6602 78.0601 35.9466 77.6483 36.1257 77.1111H33.2117V75.4191H38.2071V77.5543C38.037 78.1272 37.7461 78.6599 37.3343 79.1523C36.9314 79.6446 36.4166 80.043 35.79 80.3474C35.1633 80.6518 34.4561 80.804 33.6683 80.804C32.7372 80.804 31.9046 80.6025 31.1705 80.1997C30.4454 79.7879 29.8769 79.2194 29.4651 78.4943C29.0623 77.7691 28.8608 76.941 28.8608 76.01C28.8608 75.0789 29.0623 74.2508 29.4651 73.5257C29.8769 72.7916 30.4454 72.2231 31.1705 71.8203C31.8957 71.4085 32.7238 71.2025 33.6548 71.2025C34.7828 71.2025 35.7318 71.4756 36.5017 72.0217C37.2805 72.5678 37.7953 73.3243 38.046 74.2911H35.508ZM49.1062 71.31V73.1497H46.6085V80.7368H44.3122V73.1497H41.8145V71.31H49.1062ZM54.7169 80.8308C53.8306 80.8308 53.016 80.6249 52.2729 80.2131C51.5388 79.8013 50.9524 79.2284 50.5138 78.4943C50.0841 77.7512 49.8692 76.9186 49.8692 75.9965C49.8692 75.0745 50.0841 74.2464 50.5138 73.5123C50.9524 72.7782 51.5388 72.2052 52.2729 71.7934C53.016 71.3816 53.8306 71.1757 54.7169 71.1757C55.6032 71.1757 56.4134 71.3816 57.1475 71.7934C57.8905 72.2052 58.4724 72.7782 58.8932 73.5123C59.3229 74.2464 59.5378 75.0745 59.5378 75.9965C59.5378 76.9186 59.3229 77.7512 58.8932 78.4943C58.4635 79.2284 57.8816 79.8013 57.1475 80.2131C56.4134 80.6249 55.6032 80.8308 54.7169 80.8308ZM54.7169 78.736C55.4689 78.736 56.0687 78.4853 56.5163 77.984C56.9729 77.4826 57.2012 76.8202 57.2012 75.9965C57.2012 75.164 56.9729 74.5015 56.5163 74.0091C56.0687 73.5078 55.4689 73.2571 54.7169 73.2571C53.956 73.2571 53.3472 73.5033 52.8906 73.9957C52.443 74.4881 52.2192 75.155 52.2192 75.9965C52.2192 76.8291 52.443 77.4961 52.8906 77.9974C53.3472 78.4898 53.956 78.736 54.7169 78.736ZM67.0718 80.8308C66.3825 80.8308 65.7648 80.7189 65.2187 80.4951C64.6726 80.2713 64.2339 79.9401 63.9027 79.5014C63.5804 79.0627 63.4103 78.5345 63.3924 77.9168H65.8364C65.8722 78.266 65.9931 78.5345 66.199 78.7225C66.4049 78.9016 66.6735 78.9911 67.0047 78.9911C67.3449 78.9911 67.6135 78.915 67.8104 78.7628C68.0074 78.6017 68.1058 78.3824 68.1058 78.1048C68.1058 77.8721 68.0253 77.6796 67.8641 77.5274C67.7119 77.3752 67.5195 77.2499 67.2867 77.1514C67.0629 77.0529 66.7406 76.941 66.3198 76.8157C65.7111 76.6277 65.2142 76.4397 64.8293 76.2517C64.4443 76.0637 64.1131 75.7862 63.8355 75.4191C63.558 75.0521 63.4193 74.5731 63.4193 73.9823C63.4193 73.1049 63.7371 72.4201 64.3727 71.9277C65.0083 71.4264 65.8364 71.1757 66.857 71.1757C67.8955 71.1757 68.7325 71.4264 69.3681 71.9277C70.0037 72.4201 70.3439 73.1094 70.3887 73.9957H67.9044C67.8865 73.6913 67.7746 73.4541 67.5687 73.284C67.3628 73.1049 67.0987 73.0154 66.7764 73.0154C66.4989 73.0154 66.2751 73.0915 66.105 73.2437C65.9349 73.3869 65.8498 73.5973 65.8498 73.8748C65.8498 74.1792 65.9931 74.4165 66.2795 74.5865C66.566 74.7566 67.0136 74.9402 67.6224 75.1371C68.2312 75.343 68.7235 75.54 69.0995 75.728C69.4845 75.916 69.8157 76.189 70.0933 76.5471C70.3708 76.9052 70.5095 77.3663 70.5095 77.9303C70.5095 78.4674 70.3708 78.9553 70.0933 79.394C69.8247 79.8326 69.4308 80.1818 68.9115 80.4414C68.3923 80.701 67.7791 80.8308 67.0718 80.8308ZM79.107 74.3448C79.107 74.8909 78.9817 75.3923 78.731 75.8488C78.4803 76.2965 78.0954 76.659 77.5761 76.9365C77.0569 77.2141 76.4123 77.3528 75.6424 77.3528H74.219V80.7368H71.9227V71.31H75.6424C76.3944 71.31 77.03 71.4398 77.5493 71.6994C78.0685 71.959 78.4579 72.3171 78.7176 72.7737C78.9772 73.2303 79.107 73.754 79.107 74.3448ZM75.4678 75.5265C75.9065 75.5265 76.2333 75.4236 76.4481 75.2177C76.663 75.0118 76.7704 74.7208 76.7704 74.3448C76.7704 73.9688 76.663 73.6779 76.4481 73.472C76.2333 73.2661 75.9065 73.1631 75.4678 73.1631H74.219V75.5265H75.4678ZM82.5987 71.31V80.7368H80.3024V71.31H82.5987ZM92.696 80.7368H90.3997L86.5591 74.9223V80.7368H84.2628V71.31H86.5591L90.3997 77.1514V71.31H92.696V80.7368Z" fill="white" fill-opacity="0.5"/>
</svg>
